<svg height="512" width="512" xmlns="http://www.w3.org/2000/svg"><path d="M126.487 270.852c-6.927 11.86-16.072 27.954-25.456 44.735h25.287c.095-16.535.161-32.476.169-44.735zM497 30h-75v90h90V45c0-8.284-6.716-15-15-15zM392 30H15C6.716 30 0 36.716 0 45v75h392zM256 354.352c12.672 0 22.982-10.309 22.982-22.981v-60.742c0-12.672-10.31-22.981-22.982-22.981s-22.982 10.309-22.982 22.981v60.742c0 12.672 10.31 22.981 22.982 22.981zM404.929 270.853c-6.927 11.86-16.071 27.954-25.456 44.734h25.286c.095-16.535.162-32.475.17-44.734z"/><path d="M0 467c0 8.284 6.716 15 15 15h482c8.284 0 15-6.716 15-15V150H0zm340.849-143.659c10.397-18.847 44.902-81.052 52.381-90.229 6.929-8.499 16.367-11.932 25.247-9.181 8.946 2.771 15.294 11.381 16.174 21.935.39 4.675.296 38.268.114 69.72h1.697c8.284 0 15 6.716 15 15s-6.716 15-15 15h-1.897c-.08 10.754-.153 19.418-.191 23.895-.071 8.239-6.774 14.87-14.997 14.871l-.132-.001c-8.284-.072-14.942-6.845-14.87-15.129.063-7.248.127-15.268.188-23.636h-50.579a15 15 0 0 1-13.135-22.245zm-137.831-52.712c0-29.214 23.768-52.981 52.982-52.981 29.215 0 52.982 23.767 52.982 52.981v60.742c0 29.214-23.768 52.981-52.982 52.981s-52.982-23.767-52.982-52.981zM62.406 323.341c10.397-18.847 44.902-81.052 52.382-90.229 6.929-8.499 16.366-11.932 25.247-9.181 8.946 2.771 15.294 11.381 16.174 21.935.39 4.675.296 38.267.114 69.72h1.696c8.284 0 15 6.716 15 15s-6.716 15-15 15h-1.896c-.08 10.754-.153 19.418-.191 23.895-.071 8.239-6.773 14.87-14.997 14.871l-.132-.001c-8.284-.072-14.941-6.845-14.87-15.129.063-7.248.126-15.268.188-23.636H75.54a15 15 0 0 1-13.134-22.245z"/></svg>