<svg height="569pt" viewBox="-76 0 569 569.285" width="569pt" xmlns="http://www.w3.org/2000/svg"><path d="M.105 47.418v474.164C.137 547.758 21.348 568.969 47.52 569h322.433c26.176-.031 47.387-21.242 47.418-47.418V47.418C417.34 21.242 396.13.031 369.953 0H47.52C21.348.031.137 21.242.105 47.418zm18.965 0c0-15.715 12.739-28.453 28.45-28.453h322.433c15.711 0 28.45 12.738 28.45 28.453v474.164c0 15.715-12.739 28.45-28.45 28.45H47.52c-15.711 0-28.45-12.735-28.45-28.45zm0 0"/><path d="M57.004 180.184h303.465a9.484 9.484 0 0 0 9.484-9.485V66.383c0-5.238-4.246-9.48-9.484-9.48H57.004c-5.238 0-9.484 4.242-9.484 9.48v104.316a9.484 9.484 0 0 0 9.484 9.485zm9.484-104.317h284.5v85.352h-284.5zM246.672 199.148h-75.867a9.484 9.484 0 0 0-9.485 9.485V284.5a9.484 9.484 0 0 0 9.485 9.484h75.867c5.234 0 9.48-4.246 9.48-9.484v-75.867c0-5.238-4.242-9.485-9.48-9.485zm-9.484 75.868h-56.903v-56.899h56.903zM360.473 199.148h-75.868a9.484 9.484 0 0 0-9.484 9.485V284.5a9.484 9.484 0 0 0 9.484 9.484h75.868c5.234 0 9.48-4.246 9.48-9.484v-75.867c0-5.238-4.246-9.485-9.48-9.485zm-9.485 75.868h-56.902v-56.899h56.902zM57.004 293.984h75.867a9.484 9.484 0 0 0 9.484-9.484v-75.867a9.484 9.484 0 0 0-9.484-9.485H57.004a9.484 9.484 0 0 0-9.484 9.485V284.5a9.484 9.484 0 0 0 9.484 9.484zm9.484-75.867h56.899v56.899H66.488zM246.672 312.95h-75.867a9.484 9.484 0 0 0-9.485 9.484V398.3c0 5.238 4.246 9.48 9.485 9.48h75.867a9.48 9.48 0 0 0 9.48-9.48v-75.867c0-5.239-4.242-9.485-9.48-9.485zm-9.484 75.866h-56.903v-56.898h56.903zM360.473 312.95h-75.868a9.484 9.484 0 0 0-9.484 9.484v189.664a9.484 9.484 0 0 0 9.484 9.484h75.868c5.234 0 9.48-4.246 9.48-9.484V322.434c0-5.239-4.246-9.485-9.48-9.485zm-9.485 189.667h-56.902V331.918h56.902zM57.004 407.781h75.867c5.238 0 9.484-4.242 9.484-9.48v-75.867a9.484 9.484 0 0 0-9.484-9.485H57.004a9.484 9.484 0 0 0-9.484 9.485V398.3c0 5.238 4.246 9.48 9.484 9.48zm9.484-75.863h56.899v56.898H66.488zM246.672 426.75h-75.867a9.484 9.484 0 0 0-9.485 9.484v75.864a9.484 9.484 0 0 0 9.485 9.484h75.867c5.234 0 9.48-4.246 9.48-9.484v-75.864c0-5.238-4.242-9.484-9.48-9.484zm-9.484 75.867h-56.903v-56.902h56.903zM57.004 521.582h75.867a9.484 9.484 0 0 0 9.484-9.484v-75.864a9.484 9.484 0 0 0-9.484-9.484H57.004a9.484 9.484 0 0 0-9.484 9.484v75.864a9.484 9.484 0 0 0 9.484 9.484zm9.484-75.863h56.899v56.898H66.488zm0 0"/><path d="M313.055 123.281h18.965v18.969h-18.965zM275.121 123.281h18.965v18.969H275.12zM237.188 123.281h18.964v18.969h-18.965zm0 0"/></svg>