<svg xmlns="http://www.w3.org/2000/svg" viewBox="0 0 473.681 473.681" style="enable-background:new 0 0 473.681 473.681" xml:space="preserve"><circle style="fill:#fff" cx="236.85" cy="236.85" r="236.83"/><path style="fill:#d32027" d="M.002 236.842c0 89.021 49.142 166.531 121.749 206.989V29.842C49.144 70.304.002 147.81.002 236.842z"/><path style="fill:#fff" d="M236.837 473.677c-2.726 0-5.348-.093-8.021-.138 2.657.089 5.33.138 8.021.138z"/><path style="fill:#e7e7e7" d="M236.837 0c-.075 0-.138.004-.213.004.073 0 .14-.004.213-.004 130.807 0 130.807 473.681 0 473.681 41.704 0 80.861-10.819 114.898-29.741V29.737C317.697 10.815 278.54 0 236.837 0z"/><path style="fill:#b52025" d="M351.734 29.737v414.199c72.716-40.429 121.944-117.999 121.944-207.094 0-89.106-49.227-166.676-121.944-207.105z"/><path style="fill:#f3f1f2" d="M236.837 0h-.213c-41.696.037-80.853 10.89-114.876 29.842v413.986c31.887 17.767 68.292 28.417 107.068 29.707 2.674.045 5.295.138 8.021.138C367.643 473.677 367.643 0 236.837 0z"/><path style="fill:#d32027" d="M328.747 232.56c-3.257-3.111-9.94-2.767-11.133-7.939-1.578-12.703 4.267-20.1 7.954-28.589-18.66 4.364-33.372 11.548-33.357-9.528-10.714 13.1-22.232 26.199-26.989 23.821-6.757-3.971 6.484-37.687 7.932-55.578-6.537 2.984-19.057 9.528-19.057 9.528s-11.38-22.258-17.404-33.237v-.12c-.022.022-.022.041-.03.06-.015-.015-.015-.037-.03-.06v.12c-6.032 10.979-17.404 33.237-17.404 33.237s-12.528-6.544-19.057-9.528c1.44 17.894 14.682 51.61 7.924 55.578-4.76 2.382-16.275-10.721-26.981-23.821 0 21.076-14.704 13.893-33.357 9.528 3.68 8.485 9.525 15.882 7.932 28.589-1.174 5.172-7.861 4.828-11.118 7.939 21.648 21.641 59.168 37.714 41.296 55.581l48.184-4.495c1.578 16.282-3.519 36.263.905 47.38H238.331c4.514-11.518-.643-31.095.935-47.38l48.177 4.495c-17.855-17.867 19.664-33.94 41.304-55.581z"/></svg>