<svg xmlns="http://www.w3.org/2000/svg" viewBox="0 0 490.667 490.667" style="enable-background:new 0 0 490.667 490.667" xml:space="preserve"><path style="fill:#2196f3" d="M96 234.637H71.808l12.096-20.949c2.912-5.121 1.12-11.633-4.001-14.545-5.073-2.884-11.522-1.156-14.474 3.878L53.333 223.97l-12.096-20.949c-2.979-5.082-9.515-6.787-14.597-3.807-5.034 2.951-6.762 9.401-3.878 14.474l12.096 20.949H10.667C4.776 234.637 0 239.413 0 245.304s4.776 10.667 10.667 10.667h24.192L22.763 276.92c-2.945 5.102-1.198 11.625 3.904 14.571A10.517 10.517 0 0 0 32 292.92a10.669 10.669 0 0 0 9.259-5.333l12.075-20.949 12.096 20.949a10.665 10.665 0 0 0 9.259 5.333 10.515 10.515 0 0 0 5.333-1.429c5.102-2.946 6.849-9.469 3.904-14.571l-12.118-20.95H96c5.891 0 10.667-4.776 10.667-10.667 0-5.89-4.776-10.666-10.667-10.666zM224 234.637h-24.192l12.096-20.949c2.912-5.121 1.121-11.633-4-14.545-5.073-2.885-11.523-1.157-14.474 3.878l-12.096 20.949-12.096-20.949c-2.979-5.082-9.514-6.787-14.596-3.808-5.035 2.951-6.763 9.401-3.878 14.474l12.096 20.949h-24.192c-5.891 0-10.667 4.776-10.667 10.667s4.776 10.667 10.667 10.667h24.192l-12.096 20.949c-2.945 5.102-1.198 11.625 3.904 14.571a10.517 10.517 0 0 0 5.333 1.429 10.669 10.669 0 0 0 9.259-5.333l12.075-20.949 12.096 20.949a10.665 10.665 0 0 0 9.259 5.333 10.515 10.515 0 0 0 5.333-1.429c5.102-2.946 6.849-9.469 3.904-14.571L199.81 255.97H224c5.891 0 10.667-4.776 10.667-10.667 0-5.89-4.776-10.666-10.667-10.666zM352 234.637h-24.192l12.096-20.949c2.912-5.121 1.121-11.633-4-14.545-5.073-2.885-11.523-1.157-14.474 3.878l-12.096 20.949-12.096-20.949c-2.979-5.082-9.514-6.787-14.596-3.808-5.035 2.951-6.763 9.401-3.878 14.474l12.096 20.949h-24.192c-5.891 0-10.667 4.776-10.667 10.667s4.776 10.667 10.667 10.667h24.192l-12.096 20.949c-2.945 5.102-1.198 11.625 3.904 14.571a10.517 10.517 0 0 0 5.333 1.429 10.669 10.669 0 0 0 9.259-5.333l12.075-20.949 12.096 20.949a10.665 10.665 0 0 0 9.259 5.333 10.515 10.515 0 0 0 5.333-1.429c5.102-2.946 6.849-9.469 3.904-14.571l-12.096-20.949H352c5.891 0 10.667-4.776 10.667-10.667 0-5.89-4.776-10.666-10.667-10.666zM480 234.637h-24.192l12.096-20.949c2.911-5.121 1.119-11.633-4.002-14.544-5.073-2.883-11.521-1.156-14.473 3.878l-12.096 20.949-12.096-20.949c-2.98-5.082-9.515-6.786-14.597-3.806-5.033 2.952-6.761 9.4-3.878 14.473l12.096 20.949h-24.192c-5.891 0-10.667 4.776-10.667 10.667s4.776 10.667 10.667 10.667h24.192l-12.096 20.949c-2.945 5.102-1.198 11.625 3.904 14.571a10.517 10.517 0 0 0 5.333 1.429 10.669 10.669 0 0 0 9.259-5.333l12.075-20.949 12.096 20.949a10.665 10.665 0 0 0 9.259 5.333 10.515 10.515 0 0 0 5.333-1.429c5.102-2.946 6.849-9.469 3.904-14.571l-12.096-20.949H480c5.891 0 10.667-4.776 10.667-10.667 0-5.892-4.776-10.668-10.667-10.668z"/><path d="M96 255.97H10.667C4.776 255.97 0 251.195 0 245.304s4.776-10.667 10.667-10.667H96c5.891 0 10.667 4.776 10.667 10.667S101.891 255.97 96 255.97z"/><path d="M32 292.92c-5.891 0-10.667-4.776-10.666-10.667 0-1.872.493-3.712 1.429-5.333L65.429 203c3.16-4.972 9.753-6.44 14.724-3.279a10.666 10.666 0 0 1 3.729 13.946l-42.667 73.92A10.666 10.666 0 0 1 32 292.92z"/><path d="M74.667 292.92a10.665 10.665 0 0 1-9.237-5.333l-42.667-73.92c-2.731-5.22-.713-11.665 4.507-14.396A10.667 10.667 0 0 1 41.216 203l42.667 73.92c2.946 5.102 1.198 11.625-3.904 14.571a10.667 10.667 0 0 1-5.333 1.429h.021zM224 255.97h-85.333c-5.891 0-10.667-4.776-10.667-10.667s4.776-10.667 10.667-10.667H224c5.891 0 10.667 4.776 10.667 10.667 0 5.892-4.776 10.667-10.667 10.667z"/><path d="M160 292.92c-5.891 0-10.667-4.776-10.666-10.667 0-1.872.493-3.712 1.429-5.333L193.429 203c3.16-4.972 9.753-6.44 14.724-3.279a10.667 10.667 0 0 1 3.729 13.946l-42.667 73.92A10.666 10.666 0 0 1 160 292.92z"/><path d="M202.667 292.92a10.665 10.665 0 0 1-9.237-5.333l-42.667-73.92c-2.731-5.22-.713-11.665 4.507-14.396A10.667 10.667 0 0 1 169.216 203l42.667 73.92c2.946 5.102 1.198 11.625-3.904 14.571a10.667 10.667 0 0 1-5.333 1.429h.021zM352 255.97h-85.333c-5.891 0-10.667-4.776-10.667-10.667s4.776-10.667 10.667-10.667H352c5.891 0 10.667 4.776 10.667 10.667 0 5.892-4.776 10.667-10.667 10.667z"/><path d="M288 292.92c-5.891 0-10.667-4.776-10.666-10.667 0-1.872.493-3.712 1.429-5.333L321.429 203c3.16-4.972 9.753-6.44 14.724-3.28a10.666 10.666 0 0 1 3.729 13.946l-42.667 73.92A10.665 10.665 0 0 1 288 292.92z"/><path d="M330.667 292.92a10.665 10.665 0 0 1-9.237-5.333l-42.667-73.92c-2.731-5.22-.713-11.665 4.507-14.396A10.667 10.667 0 0 1 297.216 203l42.667 73.92c2.946 5.102 1.198 11.625-3.904 14.571a10.667 10.667 0 0 1-5.333 1.429h.021zM480 255.97h-85.333c-5.891 0-10.667-4.776-10.667-10.667s4.776-10.667 10.667-10.667H480c5.891 0 10.667 4.776 10.667 10.667 0 5.892-4.776 10.667-10.667 10.667z"/><path d="M416 292.92c-5.891 0-10.667-4.776-10.666-10.667 0-1.872.493-3.712 1.429-5.333L449.429 203c3.16-4.972 9.753-6.44 14.724-3.279a10.667 10.667 0 0 1 3.729 13.946l-42.667 73.92A10.666 10.666 0 0 1 416 292.92z"/><path d="M458.667 292.92a10.665 10.665 0 0 1-9.237-5.333l-42.667-73.92c-2.731-5.22-.713-11.665 4.507-14.396A10.667 10.667 0 0 1 425.216 203l42.667 73.92c2.946 5.102 1.198 11.625-3.904 14.571a10.667 10.667 0 0 1-5.333 1.429h.021z"/></svg>