<svg xmlns="http://www.w3.org/2000/svg" viewBox="0 0 477.88 477.88" style="enable-background:new 0 0 477.88 477.88" xml:space="preserve"><path d="M472.897 124.269a.892.892 0 0 1-.03-.031l-.017.017-68.267-68.267c-6.78-6.548-17.584-6.36-24.132.42-6.388 6.614-6.388 17.099 0 23.713l39.151 39.151h-95.334c-65.948.075-119.391 53.518-119.467 119.467-.056 47.105-38.228 85.277-85.333 85.333h-102.4C7.641 324.072 0 331.713 0 341.139s7.641 17.067 17.067 17.067h102.4c65.948-.075 119.391-53.518 119.467-119.467.056-47.105 38.228-85.277 85.333-85.333h95.334l-39.134 39.134c-6.78 6.548-6.968 17.353-.419 24.132 6.548 6.78 17.353 6.968 24.132.419.142-.137.282-.277.419-.419l68.267-68.267c6.674-6.657 6.687-17.463.031-24.136z"/><path d="m472.897 329.069-.03-.03-.017.017-68.267-68.267c-6.78-6.548-17.584-6.36-24.132.42-6.388 6.614-6.388 17.099 0 23.712l39.151 39.151h-95.334a85.209 85.209 0 0 1-56.9-21.726c-7.081-6.222-17.864-5.525-24.086 1.555-6.14 6.988-5.553 17.605 1.319 23.874a119.28 119.28 0 0 0 79.667 30.43h95.334l-39.134 39.134c-6.78 6.548-6.968 17.352-.42 24.132 6.548 6.78 17.352 6.968 24.132.42.142-.138.282-.277.42-.42l68.267-68.267c6.673-6.656 6.686-17.462.03-24.135zM199.134 149.702a119.28 119.28 0 0 0-79.667-30.43h-102.4C7.641 119.272 0 126.913 0 136.339s7.641 17.067 17.067 17.067h102.4a85.209 85.209 0 0 1 56.9 21.726c7.081 6.222 17.864 5.525 24.086-1.555 6.14-6.989 5.553-17.606-1.319-23.875z"/></svg>